<svg width="20" height="13" viewBox="0 0 20 13" fill="none" xmlns="http://www.w3.org/2000/svg">
<path id="Vector" fill-rule="evenodd" clip-rule="evenodd" d="M0.0117187 6.41325C0.0117187 6.60221 0.0867837 6.78344 0.2204 6.91705C0.354017 7.05067 0.53524 7.12573 0.724202 7.12573L17.5288 7.12573L13.0445 11.6087C12.9107 11.7425 12.8355 11.9239 12.8355 12.1131C12.8355 12.3023 12.9107 12.4838 13.0445 12.6176C13.1782 12.7513 13.3597 12.8265 13.5489 12.8265C13.7381 12.8265 13.9196 12.7513 14.0533 12.6176L19.7532 6.91769C19.8196 6.8515 19.8722 6.77288 19.9081 6.68632C19.944 6.59976 19.9625 6.50697 19.9625 6.41325C19.9625 6.31953 19.944 6.22674 19.9081 6.14018C19.8722 6.05362 19.8196 5.975 19.7532 5.90881L14.0533 0.208945C13.9196 0.0751597 13.7381 -4.45773e-09 13.5489 0C13.3597 4.45773e-09 13.1782 0.0751596 13.0445 0.208945C12.9107 0.34273 12.8355 0.524182 12.8355 0.713383C12.8355 0.902584 12.9107 1.08404 13.0445 1.21782L17.5288 5.70077L0.724202 5.70077C0.53524 5.70077 0.354017 5.77583 0.2204 5.90945C0.0867837 6.04307 0.0117187 6.22429 0.0117187 6.41325Z" fill="#0F2B48"/>
</svg>
