<svg width="42" height="40" viewBox="0 0 42 40" fill="none" xmlns="http://www.w3.org/2000/svg">
<g id="ic:round-find-in-page">
<path id="Vector" d="M35 32.6499V14.7166C35 13.8333 34.6325 12.9833 33.9675 12.3666L25.515 4.31659C24.8675 3.68325 23.975 3.33325 23.0475 3.33325H10.5C8.575 3.33325 7.0175 4.83325 7.0175 6.66659L7 33.3333C7 35.1666 8.5575 36.6666 10.4825 36.6666H31.5C32.2875 36.6666 32.9875 36.4166 33.5825 35.9999L25.83 28.6166C24.325 29.5499 22.5225 30.0833 20.58 29.9833C16.4325 29.7999 12.88 26.7166 12.32 22.7999C12.1352 21.4981 12.2753 20.1732 12.7289 18.9326C13.1825 17.6921 13.9369 16.5709 14.9308 15.66C15.9247 14.7492 17.1301 14.0744 18.4491 13.6904C19.7682 13.3064 21.1637 13.224 22.5225 13.4499C25.935 13.9999 28.77 16.5333 29.5225 19.7499C30.1 22.1833 29.54 24.4499 28.2975 26.2499L35 32.6499ZM15.75 21.6666C15.75 24.4333 18.095 26.6666 21 26.6666C23.905 26.6666 26.25 24.4333 26.25 21.6666C26.25 18.8999 23.905 16.6666 21 16.6666C18.095 16.6666 15.75 18.8999 15.75 21.6666Z" fill="#0F2B48"/>
</g>
</svg>
