<svg width="47" height="48" viewBox="0 0 47 48" fill="none" xmlns="http://www.w3.org/2000/svg">
<g id="mdi:truck-delivery">
<path id="Vector" d="M5.87504 8C4.83628 8 3.84006 8.42143 3.10554 9.17157C2.37102 9.92172 1.95837 10.9391 1.95837 12V34H5.87504C5.87504 35.5913 6.49401 37.1174 7.59579 38.2426C8.69757 39.3679 10.1919 40 11.75 40C13.3082 40 14.8025 39.3679 15.9043 38.2426C17.0061 37.1174 17.625 35.5913 17.625 34H29.375C29.375 35.5913 29.994 37.1174 31.0958 38.2426C32.1976 39.3679 33.6919 40 35.25 40C36.8082 40 38.3025 39.3679 39.4043 38.2426C40.5061 37.1174 41.125 35.5913 41.125 34H45.0417V24L39.1667 16H33.2917V8M19.5834 12L27.4167 20L19.5834 28V22H7.83337V18H19.5834M33.2917 19H38.1875L42.0455 24H33.2917M11.75 31C12.5291 31 13.2763 31.3161 13.8272 31.8787C14.3781 32.4413 14.6875 33.2044 14.6875 34C14.6875 34.7956 14.3781 35.5587 13.8272 36.1213C13.2763 36.6839 12.5291 37 11.75 37C10.971 37 10.2238 36.6839 9.67291 36.1213C9.12203 35.5587 8.81254 34.7956 8.81254 34C8.81254 33.2044 9.12203 32.4413 9.67291 31.8787C10.2238 31.3161 10.971 31 11.75 31ZM35.25 31C36.0291 31 36.7763 31.3161 37.3272 31.8787C37.8781 32.4413 38.1875 33.2044 38.1875 34C38.1875 34.7956 37.8781 35.5587 37.3272 36.1213C36.7763 36.6839 36.0291 37 35.25 37C34.471 37 33.7238 36.6839 33.1729 36.1213C32.622 35.5587 32.3125 34.7956 32.3125 34C32.3125 33.2044 32.622 32.4413 33.1729 31.8787C33.7238 31.3161 34.471 31 35.25 31Z" fill="#0F2B48"/>
</g>
</svg>
