<svg width="21" height="21" viewBox="0 0 21 21" fill="none" xmlns="http://www.w3.org/2000/svg">
<path id="Vector" d="M20.9299 1.357C20.9753 1.24342 20.9864 1.119 20.9619 0.999157C20.9373 0.879313 20.8781 0.769319 20.7916 0.682812C20.7051 0.596305 20.5951 0.537089 20.4752 0.512505C20.3554 0.487921 20.231 0.49905 20.1174 0.544513L1.93426 7.81817H1.93301L1.36803 8.04317C1.26102 8.08585 1.1679 8.15729 1.09894 8.24958C1.02998 8.34187 0.987869 8.45143 0.977263 8.56615C0.966658 8.68087 0.987968 8.79629 1.03884 8.89966C1.08971 9.00303 1.16817 9.09032 1.26554 9.1519L1.77802 9.4769L1.77927 9.4794L8.0228 13.4519L11.9952 19.6955L11.9977 19.698L12.3227 20.2105C12.3844 20.3075 12.4718 20.3856 12.5751 20.4361C12.6784 20.4867 12.7936 20.5078 12.9081 20.497C13.0226 20.4863 13.1319 20.4442 13.224 20.3753C13.3161 20.3065 13.3874 20.2136 13.4301 20.1068L20.9299 1.357ZM18.6387 3.71947L9.27151 13.0869L9.00277 12.6644C8.95353 12.5868 8.8878 12.5211 8.81027 12.4719L8.38779 12.2031L17.755 2.83573L19.2274 2.24699L18.6399 3.71947H18.6387Z" fill="#0F2B48"/>
</svg>
