<svg width="21" height="13" viewBox="0 0 21 13" fill="none" xmlns="http://www.w3.org/2000/svg">
<path id="Vector" fill-rule="evenodd" clip-rule="evenodd" d="M0.761719 6.41325C0.761719 6.60221 0.836784 6.78344 0.9704 6.91705C1.10402 7.05067 1.28524 7.12573 1.4742 7.12573L18.2788 7.12573L13.7945 11.6087C13.6607 11.7425 13.5855 11.9239 13.5855 12.1131C13.5855 12.3023 13.6607 12.4838 13.7945 12.6176C13.9282 12.7513 14.1097 12.8265 14.2989 12.8265C14.4881 12.8265 14.6696 12.7513 14.8033 12.6176L20.5032 6.91769C20.5696 6.8515 20.6222 6.77288 20.6581 6.68632C20.694 6.59976 20.7125 6.50697 20.7125 6.41325C20.7125 6.31953 20.694 6.22674 20.6581 6.14018C20.6222 6.05362 20.5696 5.975 20.5032 5.90881L14.8033 0.208945C14.6696 0.0751597 14.4881 -4.45773e-09 14.2989 0C14.1097 4.45773e-09 13.9282 0.0751596 13.7945 0.208945C13.6607 0.34273 13.5855 0.524182 13.5855 0.713383C13.5855 0.902584 13.6607 1.08404 13.7945 1.21782L18.2788 5.70077L1.4742 5.70077C1.28524 5.70077 1.10402 5.77583 0.9704 5.90945C0.836784 6.04307 0.761719 6.22429 0.761719 6.41325Z" fill="#0F2B48"/>
</svg>
