<svg width="46" height="44" viewBox="0 0 46 44" fill="none" xmlns="http://www.w3.org/2000/svg">
<g id="fluent:wallet-credit-card-16-filled">
<path id="Vector" d="M26.933 3.36042C26.6386 3.13028 26.2994 2.95828 25.9351 2.85438C25.5707 2.75047 25.1884 2.71673 24.8104 2.75509C24.4323 2.79345 24.0659 2.90317 23.7325 3.07788C23.399 3.25259 23.1051 3.48882 22.8678 3.77292L14.5417 13.7499H18.2217L25.1131 5.48892L27.3269 7.21867L21.7781 13.7499H25.4811L29.555 8.95392L34.4943 12.8122L33.6375 13.7499H34.5C35.3574 13.7491 36.2101 13.8705 37.03 14.1102C37.3432 13.5482 37.4428 12.8996 37.3117 12.2752C37.1806 11.6507 36.827 11.0892 36.3113 10.6864L26.933 3.36042ZM8.625 15.1249C8.625 14.7602 8.77645 14.4105 9.04603 14.1526C9.31562 13.8948 9.68125 13.7499 10.0625 13.7499H11.6668L13.9524 10.9999H10.0625C8.91875 10.9999 7.82185 11.4345 7.0131 12.2081C6.20435 12.9817 5.75 14.0309 5.75 15.1249V31.6249C5.75 33.4483 6.50725 35.197 7.85517 36.4863C9.20309 37.7756 11.0313 38.4999 12.9375 38.4999H34.5C36.025 38.4999 37.4875 37.9205 38.5659 36.889C39.6442 35.8576 40.25 34.4586 40.25 32.9999V21.9999C40.25 20.5412 39.6442 19.1423 38.5659 18.1108C37.4875 17.0794 36.025 16.4999 34.5 16.4999H10.0625C9.68125 16.4999 9.31562 16.3551 9.04603 16.0972C8.77645 15.8393 8.625 15.4896 8.625 15.1249ZM30.1875 27.4999H33.0625C33.4437 27.4999 33.8094 27.6448 34.079 27.9026C34.3486 28.1605 34.5 28.5102 34.5 28.8749C34.5 29.2396 34.3486 29.5893 34.079 29.8472C33.8094 30.1051 33.4437 30.2499 33.0625 30.2499H30.1875C29.8063 30.2499 29.4406 30.1051 29.171 29.8472C28.9014 29.5893 28.75 29.2396 28.75 28.8749C28.75 28.5102 28.9014 28.1605 29.171 27.9026C29.4406 27.6448 29.8063 27.4999 30.1875 27.4999Z" fill="white"/>
</g>
</svg>
