<svg width="19" height="19" viewBox="0 0 19 19" fill="none" xmlns="http://www.w3.org/2000/svg">
<g id="Frame" clip-path="url(#clip0_1074_177)">
<g id="Group">
<g id="Group_2">
<path id="Vector" d="M18.9999 6.6582V6.84826C18.9999 7.51941 18.9939 8.19056 18.9939 8.8617C18.988 11.7245 18.9761 14.5872 18.9642 17.45C18.9582 18.3825 18.3211 19.0002 17.3863 19.0002L11.7298 18.9883H7.27599C5.3885 18.9942 3.501 18.9942 1.61946 19.0002C0.684644 19.0002 0.0415848 18.3825 0.0415848 17.45C0.0296764 14.5872 0.0237221 11.7245 0.0118136 8.8617C0.0118136 8.19056 0.00585938 7.51941 0.00585938 6.84826V6.6582H18.9999Z" fill="#366CB1"/>
<path id="Vector_2" d="M19.0001 6.84814V8.86159H18.9941C18.9941 8.19044 19.0001 7.51929 19.0001 6.84814Z" fill="#366CB1"/>
<path id="Vector_3" d="M0.00595425 8.86159L0 6.84814C0 7.51929 0.00595425 8.19044 0.00595425 8.86159Z" fill="#366CB1"/>
<path id="Vector_4" d="M8.30032 5.22069C5.62686 5.22069 2.98318 5.22069 0.315674 5.22069C0.339491 5.16724 0.357354 5.10785 0.387125 5.05439C1.15522 3.67052 1.91737 2.28071 2.68546 0.896843C2.99508 0.338543 3.47738 0.0296968 4.11448 0.0237574C5.63877 0.00593936 7.1571 0.00593936 8.68139 0C8.70521 0 8.72307 0.0118787 8.76475 0.0178181C8.60994 1.74617 8.45513 3.46858 8.30032 5.22069Z" fill="#366CB1"/>
<path id="Vector_5" d="M10.1936 0C10.3127 0 10.3901 0 10.4735 0C11.9263 0 13.3851 0.00593936 14.8379 0C15.4512 0 15.9275 0.261332 16.2253 0.772116C17.0588 2.21538 17.8627 3.67052 18.6725 5.12566C18.6784 5.13754 18.6784 5.15536 18.6784 5.191C16.0169 5.191 13.3613 5.191 10.6759 5.191C10.5151 3.47452 10.3544 1.75211 10.1936 0Z" fill="#366CB1"/>
</g>
</g>
</g>
<defs>
<clipPath id="clip0_1074_177">
<rect width="19" height="19" fill="white"/>
</clipPath>
</defs>
</svg>
