<svg width="22" height="23" viewBox="0 0 22 23" fill="none" xmlns="http://www.w3.org/2000/svg">
<g id="Group">
<path id="Vector" d="M15.5527 22.0058C15.1394 21.9197 14.7203 21.8623 14.3184 21.7475C12.1081 21.1162 10.3915 19.0786 10.1331 16.8115C9.77719 13.6604 11.7234 10.9227 14.8121 10.2224C18.0501 9.48776 21.4029 11.7721 21.9138 15.0609C21.9426 15.2273 21.9713 15.3995 22 15.566C22 15.8931 22 16.226 22 16.5532C21.9885 16.5991 21.9713 16.645 21.9598 16.6967C21.6038 19.1877 20.2375 20.8694 17.8721 21.7131C17.4473 21.8623 16.9823 21.914 16.5402 22.0115C16.2072 22.0058 15.88 22.0058 15.5527 22.0058ZM15.082 16.8746C14.7317 16.5245 14.4102 16.1916 14.0773 15.8644C13.7443 15.5315 13.3194 15.4971 13.0324 15.7841C12.7453 16.0711 12.7683 16.4958 13.1013 16.8287C13.5893 17.3223 14.083 17.8102 14.5767 18.3038C14.9442 18.6711 15.3518 18.6596 15.6905 18.2751C15.9661 17.9651 16.2359 17.6495 16.5057 17.3338C17.2004 16.5302 17.8951 15.7324 18.584 14.9289C18.8653 14.6017 18.8424 14.1713 18.5381 13.913C18.2338 13.6547 17.8205 13.7064 17.5334 14.0393C17.4301 14.1598 17.3267 14.2803 17.2234 14.3951C16.5172 15.2159 15.8111 16.0309 15.082 16.8746Z" fill="#366CB1"/>
<path id="Vector_2" d="M18.3141 6.43408C18.3141 7.12857 18.3141 7.84028 18.3141 8.56347C15.3632 7.81732 12.7108 8.37406 10.5406 10.5494C8.36477 12.7247 7.81362 15.3764 8.57144 18.3495C8.04901 18.3495 7.53231 18.3495 7.00987 18.3495C5.18994 18.3552 3.37002 18.3552 1.55584 18.361C0.654484 18.361 0.0344465 17.764 0.0344465 16.8629C0.0229644 13.4479 0.0114822 10.0328 0 6.61775C0 6.56609 0 6.52018 0 6.43408C6.10278 6.43408 12.1998 6.43408 18.3141 6.43408Z" fill="#366CB1"/>
<path id="Vector_3" d="M7.99714 5.0451C5.41939 5.0451 2.87035 5.0451 0.29834 5.0451C0.321304 4.99344 0.338527 4.93605 0.367233 4.88439C1.10783 3.54707 1.84269 2.204 2.58329 0.866678C2.88183 0.327157 3.34686 0.028698 3.96115 0.0229584C5.43087 0.00573959 6.89485 0.00573959 8.36457 0C8.38753 0 8.40476 0.0114792 8.44494 0.0172188C8.29568 1.68744 8.14641 3.35192 7.99714 5.0451Z" fill="#366CB1"/>
<path id="Vector_4" d="M9.82324 0C9.93806 0 10.0127 0 10.0931 0C11.4939 0 12.9005 0.00573959 14.3013 0C14.8926 0 15.3519 0.252542 15.639 0.746147C16.4427 2.14087 17.2178 3.54707 17.9986 4.95327C18.0043 4.96475 18.0043 4.98197 18.0043 5.0164C15.438 5.0164 12.8775 5.0164 10.2883 5.0164C10.1333 3.35766 9.97825 1.69318 9.82324 0Z" fill="#366CB1"/>
</g>
</svg>
