<svg width="22" height="22" viewBox="0 0 22 22" fill="none" xmlns="http://www.w3.org/2000/svg">
<g id="Group">
<g id="Group_2">
<path id="Vector" d="M18.2999 6.43408C18.2999 7.12858 18.2999 7.84029 18.2999 8.56348C15.3512 7.81733 12.7009 8.37408 10.5325 10.5494C8.35828 12.7247 7.80756 15.3764 8.5648 18.3496C8.04276 18.3496 7.52647 18.3496 7.00443 18.3496C5.18592 18.3553 3.36741 18.3553 1.55463 18.361C0.653977 18.361 0.0344198 17.7641 0.0344198 16.863C0.0229465 13.4479 0.0114733 10.0328 0 6.61775C0 6.56609 0 6.52018 0 6.43408C6.09804 6.43408 12.1904 6.43408 18.2999 6.43408Z" fill="#366CB1"/>
<path id="Vector_2" d="M7.99141 5.04513C5.41566 5.04513 2.8686 5.04513 0.298584 5.04513C0.321531 4.99348 0.33874 4.93608 0.367424 4.88442C1.10745 3.54709 1.84174 2.20402 2.58177 0.866684C2.88007 0.327159 3.34474 0.0286981 3.95856 0.0229585C5.42714 0.00573963 6.88998 0.00573963 8.35856 0C8.38151 0 8.39872 0.0114793 8.43887 0.0172189C8.28972 1.68745 8.14057 3.35194 7.99141 5.04513Z" fill="#366CB1"/>
<path id="Vector_3" d="M9.81543 0C9.93016 0 10.0047 0 10.0851 0C11.4848 0 12.8903 0.00573963 14.29 0C14.8809 0 15.3398 0.252544 15.6266 0.746152C16.4298 2.14088 17.2042 3.54709 17.9844 4.9533C17.9901 4.96478 17.9901 4.982 17.9901 5.01644C15.4259 5.01644 12.8673 5.01644 10.2801 5.01644C10.1252 3.35768 9.97032 1.69319 9.81543 0Z" fill="#366CB1"/>
</g>
<path id="Vector_4" d="M21.9998 15.6578C21.9998 15.8931 21.9998 16.1227 21.9998 16.358C21.9883 16.4441 21.9826 16.5244 21.9711 16.6105C21.8678 17.5805 21.558 18.4817 21.0131 19.2967C20.0608 20.7144 18.7528 21.5983 17.0663 21.914C16.8483 21.9541 16.6245 21.9771 16.4008 22.0058C16.1656 22.0058 15.9361 22.0058 15.7009 22.0058C15.6608 22 15.6264 21.9886 15.5862 21.9828C15.3281 21.9426 15.0584 21.9254 14.806 21.868C13.2629 21.5237 12.0352 20.6972 11.1346 19.4C10.297 18.2062 9.95283 16.8688 10.0905 15.4167C10.2052 14.2228 10.6527 13.161 11.4271 12.2427C12.5687 10.8881 14.0316 10.1535 15.7985 10.0616C16.9745 10.0042 18.0816 10.2797 19.0913 10.8939C20.6287 11.8352 21.5753 13.1955 21.908 14.9747C21.9481 15.1986 21.9711 15.4282 21.9998 15.6578ZM17.0089 16.0079C17.072 15.962 17.1121 15.939 17.1408 15.9103C17.7374 15.3134 18.3341 14.7165 18.9307 14.1195C18.9766 14.0736 19.0224 14.022 19.0626 13.9703C19.2806 13.6891 19.2347 13.2643 18.9593 13.0347C18.6553 12.7765 18.2652 12.8052 17.9669 13.1036C17.3588 13.712 16.7507 14.3204 16.1427 14.9288C16.114 14.9575 16.0796 14.9862 16.0509 15.0149C16.0164 14.9862 15.9935 14.9633 15.9706 14.9403C15.351 14.3376 14.7372 13.735 14.1176 13.1323C14.0717 13.0864 14.0201 13.0405 13.9685 13.0003C13.6759 12.7822 13.2571 12.8339 13.0219 13.1094C12.7753 13.4136 12.8039 13.7981 13.1022 14.0966C13.7103 14.705 14.3184 15.3134 14.9208 15.9218C14.9494 15.9505 14.9781 15.9849 15.024 16.0308C14.9839 16.0653 14.9437 16.0825 14.915 16.1169C14.3184 16.7138 13.7218 17.3108 13.1252 17.9077C13.0793 17.9536 13.0334 18.0053 12.9932 18.0569C12.7408 18.3841 12.8498 18.8777 13.2055 19.0728C13.4981 19.2335 13.8193 19.1876 14.0775 18.9293C14.7028 18.3209 15.3281 17.7068 15.9533 17.0927C15.982 17.064 16.0107 17.0353 16.0623 16.9893C16.0968 17.0353 16.1197 17.0697 16.1484 17.0984C16.745 17.6953 17.3416 18.2922 17.9382 18.8892C17.9841 18.9351 18.0357 18.981 18.0874 19.0212C18.3685 19.2393 18.793 19.1934 19.0224 18.9179C19.2806 18.6137 19.2519 18.2234 18.9536 17.9249C18.3513 17.3165 17.7432 16.7138 17.1408 16.1112C17.1121 16.0767 17.0777 16.0538 17.0089 16.0079Z" fill="#366CB1"/>
</g>
</svg>
