<svg width="22" height="23" viewBox="0 0 22 23" fill="none" xmlns="http://www.w3.org/2000/svg">
<g id="Group">
<g id="Group_2">
<path id="Vector" d="M18.3475 6.43555C18.3475 7.13022 18.3475 7.84211 18.3475 8.56549C15.3912 7.81915 12.734 8.37603 10.5599 10.5519C8.38004 12.7278 7.82789 15.3801 8.5871 18.354C8.06371 18.354 7.54607 18.354 7.02267 18.354C5.19942 18.3598 3.37617 18.3598 1.55868 18.3655C0.65568 18.3655 0.0345094 17.7684 0.0345094 16.8671C0.0230063 13.4511 0.0115031 10.0352 0 6.61926C0 6.56759 0 6.52166 0 6.43555C6.11392 6.43555 12.2221 6.43555 18.3475 6.43555Z" fill="#366CB1"/>
<path id="Vector_2" d="M8.01218 5.0464C5.42972 5.0464 2.87602 5.0464 0.299316 5.0464C0.322323 4.99474 0.339577 4.93732 0.368335 4.88565C1.11029 3.54798 1.84649 2.20457 2.58844 0.866902C2.88752 0.327241 3.3534 0.0287054 3.96882 0.0229643C5.44122 0.00574107 6.90788 0.00574107 8.38028 0C8.40329 0 8.42054 0.0114822 8.4608 0.0172232C8.31126 1.68788 8.16172 3.35279 8.01218 5.0464Z" fill="#366CB1"/>
<path id="Vector_3" d="M9.84058 0C9.95561 0 10.0304 0 10.1109 0C11.5143 0 12.9234 0.00574107 14.3268 0C14.9192 0 15.3793 0.252607 15.6669 0.74634C16.4721 2.14142 17.2486 3.54798 18.0308 4.95455C18.0366 4.96603 18.0366 4.98325 18.0366 5.0177C15.4656 5.0177 12.9004 5.0177 10.3065 5.0177C10.1512 3.35853 9.99587 1.69362 9.84058 0Z" fill="#366CB1"/>
</g>
<g id="Group_3">
<path id="Vector_4" d="M10.0481 16.0465C10.0481 12.7569 12.7283 10.0815 16.024 10.0815C19.3254 10.0815 21.9999 12.7511 21.9999 16.0465C21.9999 19.3362 19.3196 22.0115 16.024 22.0115C12.7283 22.0115 10.0481 19.3362 10.0481 16.0465ZM16.6912 14.3242C16.6912 13.9108 16.6969 13.4975 16.6912 13.0841C16.6854 12.6937 16.4036 12.4067 16.0297 12.4009C15.6616 12.4009 15.3626 12.688 15.3626 13.0726C15.3568 14.0601 15.351 15.0476 15.3683 16.0293C15.3741 16.1958 15.4546 16.4139 15.5811 16.5173C16.139 16.9995 16.7199 17.4588 17.3066 17.9066C17.6862 18.1937 18.2268 17.9698 18.3304 17.5048C18.3936 17.2177 18.2786 16.9938 18.0543 16.8158C17.6402 16.4828 17.2203 16.1556 16.8119 15.8169C16.7429 15.7595 16.6912 15.6504 16.6912 15.5643C16.6854 15.1509 16.6912 14.7376 16.6912 14.3242Z" fill="#366CB1"/>
</g>
</g>
</svg>
