<svg width="16" height="16" viewBox="0 0 16 16" fill="none" xmlns="http://www.w3.org/2000/svg">
<g clip-path="url(#clip0_1063_134)">
<path d="M9.11858e-05 9.37547C0.167019 9.06658 0.363158 8.95387 0.61355 9.01231C0.880634 9.0791 1.00166 9.27529 1.00166 9.63845C1.00166 10.2479 1.00166 10.8573 1.00166 11.4668C1.00166 11.784 1.21032 11.9969 1.52748 11.9969C4.31934 11.9969 7.10703 11.9969 9.89889 11.9969C9.92393 11.9969 9.94897 11.9927 9.99905 11.9927C9.99905 11.9301 9.99905 11.8717 9.99905 11.8132C9.99905 10.0601 9.99905 8.30268 9.99905 6.54949C9.99905 6.15293 10.3287 5.90247 10.6751 6.03188C10.8712 6.10701 10.9964 6.29068 10.9964 6.52027C11.0006 6.95857 10.9964 7.39687 10.9964 7.83099C10.9964 7.88108 10.9964 7.93117 10.9964 7.99796C11.3637 7.99796 11.7184 7.99379 12.0689 7.99796C12.3193 8.00214 12.5697 7.99796 12.8159 8.02301C13.1373 8.0564 13.4085 8.20668 13.6381 8.43626C14.2807 9.07492 14.9192 9.71359 15.5577 10.3564C15.8499 10.6528 15.9917 11.0118 15.9917 11.425C15.9917 12.1138 15.9959 12.7984 15.9917 13.4871C15.9834 14.3345 15.3324 14.9857 14.4852 14.994C14.3225 14.994 14.1639 14.9899 14.0011 14.9982C13.9552 15.0024 13.8926 15.0358 13.8718 15.0734C13.6464 15.5701 13.2708 15.8706 12.7325 15.975C12.7241 15.975 12.7158 15.9875 12.7074 15.9917C12.5614 15.9917 12.4153 15.9917 12.2693 15.9917C12.2609 15.9834 12.2526 15.975 12.2442 15.975C11.7101 15.8706 11.3345 15.5659 11.1049 15.0734C11.0882 15.0358 11.0131 14.9982 10.9631 14.9982C9.64433 14.994 8.32977 14.994 7.01105 14.994C6.92341 14.994 6.88585 15.0233 6.85246 15.1026C6.7064 15.4323 6.4727 15.687 6.14302 15.8414C6.00531 15.9082 5.8509 15.9458 5.70484 15.9959C5.55878 15.9959 5.41271 15.9959 5.26665 15.9959C5.25831 15.9875 5.24996 15.9792 5.24161 15.9792C4.70745 15.8748 4.33186 15.5701 4.10233 15.0775C4.08564 15.0358 4.01052 15.0024 3.96045 15.0024C3.69336 14.994 3.43045 14.9982 3.16337 14.9982C2.50818 14.9982 2.02826 14.706 1.73614 14.1216C1.56504 13.7835 1.39394 13.4454 1.22701 13.1031C1.1811 13.0113 1.12685 12.9528 1.01835 12.9194C0.563471 12.7692 0.246309 12.4644 0.0752086 12.0136C0.0376499 11.9176 0.0126107 11.8174 -0.0166016 11.7214C9.11858e-05 10.9367 9.11858e-05 10.1561 9.11858e-05 9.37547ZM11.009 8.99979C11.009 10.6737 11.009 12.3309 11.009 13.988C11.0215 13.9964 11.0382 14.0047 11.0507 14.0131C11.0799 13.9672 11.1175 13.9213 11.1425 13.8712C11.5306 13.0488 12.5155 12.7483 13.2833 13.2242C13.5796 13.4078 13.7841 13.675 13.9135 14.0006C14.1055 14.0006 14.2933 14.0047 14.4811 14.0006C14.7899 13.9964 14.9985 13.7877 14.9985 13.4788C15.0027 12.8026 14.9985 12.1263 14.9985 11.4501C14.9985 11.2915 14.9443 11.1579 14.8316 11.0452C14.2056 10.419 13.5838 9.7929 12.9495 9.17093C12.866 9.09162 12.7367 9.01648 12.624 9.01231C12.0898 8.99144 11.5556 8.99979 11.009 8.99979ZM5.77578 12.9987C6.29326 13.1407 6.66467 13.437 6.88168 13.9296C6.89837 13.9672 6.97766 13.9964 7.02774 13.9964C7.97505 14.0006 8.92237 14.0006 9.86968 14.0006C9.90724 14.0006 9.94897 13.9922 9.98235 13.9922C9.98235 13.6583 9.98235 13.3327 9.98235 13.0029C8.6219 13.0029 7.27396 13.0029 5.93019 13.0029C5.88011 12.9987 5.83003 12.9987 5.77578 12.9987ZM5.24161 13.0071C4.26092 13.0071 3.29691 13.0071 2.30786 13.0071C2.44975 13.2784 2.57077 13.5414 2.71684 13.7919C2.79613 13.9296 2.93801 13.9964 3.0966 14.0006C3.4221 14.0047 3.75179 14.0006 4.07729 14.0006C4.34021 13.4329 4.6365 13.1866 5.24161 13.0071ZM5.99696 14.4931C5.99279 14.2218 5.76326 14.0006 5.49201 14.0006C5.22075 14.0006 4.9954 14.226 4.9954 14.5015C4.9954 14.777 5.22909 15.0066 5.50452 15.0024C5.77995 14.994 6.00113 14.7645 5.99696 14.4931ZM12.4946 14.9982C12.7659 14.9982 12.9954 14.777 12.9996 14.5057C13.0037 14.2343 12.7826 14.0047 12.5113 14.0006C12.2317 13.9964 12.0022 14.2218 12.0022 14.5015C11.998 14.7686 12.2234 14.9982 12.4946 14.9982Z" fill="#3A3A3A"/>
<path d="M0 4.12428C0.0375587 3.91557 0.066771 3.70685 0.116849 3.49814C0.613459 1.36091 2.52061 -0.0833897 4.7157 0.00427013C6.9108 0.0919299 8.77204 1.86182 8.97235 4.04914C9.19353 6.4911 7.52843 8.60328 5.10381 8.96227C2.72926 9.30873 0.417319 7.59728 0.0584246 5.22629C0.0417319 5.10941 0.0166927 4.99253 0 4.87565C0 4.62519 0 4.37474 0 4.12428ZM4.49452 1.00192C2.57068 1.00192 1.00156 2.57145 1.00156 4.49997C1.00156 6.42848 2.57068 7.99801 4.4987 7.99801C6.43088 7.99801 8.00417 6.42431 8 4.49162C7.99583 2.56728 6.42253 0.997748 4.49452 1.00192Z" fill="#3A3A3A"/>
<path d="M12.9995 10.9994C13.1748 10.9994 13.3292 10.9994 13.4836 10.9994C13.7758 11.0036 13.9969 11.2164 14.0011 11.4919C14.0053 11.7758 13.7799 11.9929 13.4795 11.997C13.1623 12.0012 12.8451 12.0012 12.528 11.997C12.215 11.9929 12.0063 11.7883 12.0022 11.4794C11.998 11.158 11.998 10.8324 12.0022 10.511C12.0063 10.2188 12.2192 9.99756 12.4988 9.99756C12.7784 9.99756 12.9954 10.2146 12.9995 10.5068C12.9995 10.6654 12.9995 10.8199 12.9995 10.9994Z" fill="#3A3A3A"/>
<path d="M4.99957 5.00087C4.99957 5.51013 4.99957 6.0027 4.99957 6.49109C4.99957 6.71233 4.87437 6.89182 4.68241 6.96696C4.49461 7.04209 4.26509 7.00453 4.14406 6.83755C4.06895 6.7332 4.01052 6.5871 4.00635 6.4577C3.98966 5.98183 3.998 5.50179 3.998 5.00087C3.93541 5.00087 3.88115 5.00087 3.82273 5.00087C3.39706 5.00087 2.96723 5.00087 2.54156 5.00087C2.2244 5.00087 1.99905 4.79216 1.99487 4.50413C1.99487 4.21194 2.21605 4.00322 2.53321 4.00322C3.01313 4.00322 3.48887 4.00322 3.99383 4.00322C3.99383 3.94478 3.99383 3.88634 3.99383 3.83208C3.99383 3.4063 3.99383 2.98052 3.99383 2.55057C3.99383 2.22081 4.20666 1.99539 4.50296 1.99957C4.79091 2.00374 4.99539 2.22915 4.99539 2.55057C4.99539 2.97635 4.99539 3.40213 4.99539 3.83208C4.99539 3.88217 4.99539 3.93226 4.99539 3.99905C5.22492 3.99905 5.44193 3.99905 5.65893 3.99905C5.91767 3.99905 6.18058 3.99905 6.43932 3.99905C6.769 3.99905 6.99435 4.20776 6.99435 4.50413C6.99018 4.79216 6.76483 4.9967 6.44766 5.00087C6.022 5.00087 5.59216 5.00087 5.1665 5.00087C5.12059 5.00087 5.07051 5.00087 4.99957 5.00087Z" fill="#3A3A3A"/>
</g>
<defs>
<clipPath id="clip0_1063_134">
<rect width="16" height="16" fill="white"/>
</clipPath>
</defs>
</svg>