<svg width="16" height="16" viewBox="0 0 16 16" fill="none" xmlns="http://www.w3.org/2000/svg">
<path d="M2.1656 1.58433L14.2056 7.34262C14.3273 7.40073 14.4301 7.4921 14.502 7.60616C14.5739 7.72023 14.6121 7.85233 14.6121 7.98719C14.6121 8.12204 14.5739 8.25414 14.502 8.36821C14.4301 8.48228 14.3273 8.57365 14.2056 8.63176L2.1656 14.39C2.04217 14.4492 1.90436 14.4716 1.76856 14.4546C1.63276 14.4377 1.50469 14.3821 1.39958 14.2944C1.29448 14.2068 1.21676 14.0908 1.17569 13.9602C1.13461 13.8297 1.13191 13.6901 1.16789 13.558L2.37246 9.14204C2.3872 9.08792 2.41755 9.03934 2.45972 9.00235C2.50189 8.96536 2.55402 8.94161 2.6096 8.93404L8.44389 8.14147C8.46827 8.138 8.49135 8.12829 8.51087 8.11327C8.5304 8.09825 8.54571 8.07844 8.55532 8.05576L8.5656 8.02033C8.57011 7.98843 8.5637 7.95594 8.54741 7.92814C8.53113 7.90034 8.50592 7.87886 8.47589 7.86719L8.44446 7.85862L2.61589 7.06604C2.56041 7.05838 2.50841 7.03457 2.46635 6.99759C2.42429 6.96061 2.39402 6.91209 2.37932 6.85804L1.16789 2.4169C1.13176 2.28482 1.13436 2.14515 1.17537 2.0145C1.21638 1.88386 1.29409 1.76776 1.39922 1.68003C1.50435 1.59229 1.63249 1.53663 1.76836 1.51966C1.90424 1.5027 2.04212 1.52515 2.1656 1.58433Z" fill="#366CB1"/>
</svg>
