<svg width="20" height="20" viewBox="0 0 20 20" fill="none" xmlns="http://www.w3.org/2000/svg">
<g clip-path="url(#clip0_1063_105)">
<path d="M0 5.34884C0 4.18605 0 3.02922 0 1.86643C0 0.751342 0.751118 0 1.85991 0C3.71982 0 5.57973 0 7.43964 0C8.53651 0 9.28763 0.757305 9.28763 1.8545C9.28763 4.19201 9.28763 6.52355 9.28763 8.86106C9.28763 9.95826 8.53651 10.7156 7.43964 10.7156C5.57377 10.7156 3.7079 10.7156 1.84203 10.7156C0.76304 10.7156 0.00596125 9.95826 0.00596125 8.87299C0 7.69827 0 6.52355 0 5.34884ZM1.4307 5.3548C1.4307 6.51759 1.4307 7.67442 1.4307 8.83721C1.4307 9.17114 1.538 9.28444 1.86587 9.28444C3.71982 9.28444 5.56781 9.28444 7.42176 9.28444C7.74963 9.28444 7.85693 9.17114 7.85693 8.83721C7.85693 6.51759 7.85693 4.19797 7.85693 1.87239C7.85693 1.5325 7.74963 1.42516 7.39791 1.42516C5.56185 1.42516 3.72578 1.42516 1.88972 1.42516C1.53204 1.42516 1.4307 1.5325 1.4307 1.89624C1.4307 3.05307 1.4307 4.20394 1.4307 5.3548Z" fill="#366CB1"/>
<path d="M20 14.6573C20 15.82 20 16.9769 20 18.1397C20 19.2548 19.2489 20.0061 18.1401 20.0061C16.2802 20.0061 14.4203 20.0061 12.5604 20.0061C11.4635 20.0061 10.7124 19.2488 10.7124 18.1516C10.7124 15.8141 10.7124 13.4825 10.7124 11.145C10.7124 10.0478 11.4635 9.29053 12.5604 9.29053C14.4263 9.29053 16.2921 9.29053 18.158 9.29053C19.237 9.29053 19.9941 10.0478 19.9941 11.1331C20 12.3019 20 13.4825 20 14.6573ZM18.5693 14.6274C18.5693 13.4825 18.5693 12.3376 18.5693 11.1927C18.5693 10.8171 18.468 10.7157 18.0984 10.7157C16.2743 10.7157 14.4561 10.7157 12.6319 10.7157C12.2385 10.7157 12.1431 10.8111 12.1431 11.1987C12.1431 13.4945 12.1431 15.7962 12.1431 18.092C12.1431 18.4676 12.2444 18.569 12.614 18.569C14.4441 18.569 16.2743 18.569 18.1044 18.569C18.468 18.569 18.5693 18.4676 18.5693 18.1098C18.5693 16.9471 18.5693 15.7902 18.5693 14.6274Z" fill="#366CB1"/>
<path d="M15.3324 7.85927C14.4084 7.85927 13.4903 7.85927 12.5664 7.85927C11.4695 7.85927 10.7124 7.10197 10.7124 6.01073C10.7124 4.62135 10.7124 3.23196 10.7124 1.83661C10.7124 0.757305 11.4695 0 12.5544 0C14.4203 0 16.2862 0 18.152 0C19.237 0 19.9941 0.757305 19.9941 1.83661C19.9941 3.23196 19.9941 4.63327 19.9941 6.02862C19.9941 7.096 19.231 7.85331 18.164 7.85331C17.2221 7.85927 16.2802 7.85927 15.3324 7.85927ZM15.3681 1.43113C14.4561 1.43113 13.538 1.43113 12.626 1.43113C12.2444 1.43113 12.1431 1.52654 12.1431 1.90221C12.1431 3.25581 12.1431 4.60942 12.1431 5.96303C12.1431 6.33274 12.2444 6.43411 12.626 6.43411C14.4501 6.43411 16.2683 6.43411 18.0924 6.43411C18.474 6.43411 18.5753 6.33274 18.5753 5.96303C18.5753 4.60942 18.5753 3.25581 18.5753 1.90221C18.5753 1.5325 18.474 1.43113 18.0924 1.43113C17.1804 1.43113 16.2742 1.43113 15.3681 1.43113Z" fill="#366CB1"/>
<path d="M4.64978 12.1467C5.57973 12.1467 6.50969 12.1467 7.43964 12.1467C8.53651 12.1467 9.28167 12.904 9.28763 14.0012C9.28763 15.3846 9.28763 16.768 9.28763 18.1515C9.28763 19.2487 8.53055 20 7.43964 20.006C5.57973 20.006 3.71982 20.006 1.86587 20.006C0.751118 20 0 19.2487 0 18.1336C0 16.7561 0 15.3846 0 14.0072C0 12.898 0.751118 12.1467 1.85991 12.1467C2.78987 12.1407 3.71982 12.1467 4.64978 12.1467ZM4.64382 13.5719C3.71386 13.5719 2.7839 13.5719 1.85395 13.5719C1.54993 13.5719 1.4307 13.6852 1.4307 13.9833C1.4307 15.3727 1.4307 16.768 1.4307 18.1574C1.4307 18.4556 1.54993 18.5689 1.85395 18.5689C3.71386 18.5689 5.57377 18.5689 7.43368 18.5689C7.74367 18.5689 7.85693 18.4496 7.85693 18.1336C7.85693 16.7561 7.85693 15.3787 7.85693 14.0072C7.85693 13.6792 7.74367 13.5719 7.40984 13.5719C6.48584 13.5719 5.56781 13.5719 4.64382 13.5719Z" fill="#366CB1"/>
</g>
<defs>
<clipPath id="clip0_1063_105">
<rect width="20" height="20" fill="white"/>
</clipPath>
</defs>
</svg>
