<svg width="23" height="22" viewBox="0 0 23 22" fill="none" xmlns="http://www.w3.org/2000/svg">
<path fill-rule="evenodd" clip-rule="evenodd" d="M2.43188 2.2C2.43188 1.61652 2.66367 1.05695 3.07625 0.644365C3.48883 0.231785 4.04841 0 4.63188 0L16.6688 0L21.4986 4.82973V19.8C21.4986 20.3835 21.2668 20.9431 20.8542 21.3556C20.4416 21.7682 19.882 22 19.2986 22H4.63188C4.04841 22 3.48883 21.7682 3.07625 21.3556C2.66367 20.9431 2.43188 20.3835 2.43188 19.8V2.2ZM6.83188 5.86667H11.2319V7.33333H6.83188V5.86667ZM17.0986 10.2667H6.83188V11.7333H17.0986V10.2667ZM17.0986 14.6667H12.6986V16.1333H17.0986V14.6667Z" fill="#BABABA"/>
</svg>
