<svg width="29" height="17" viewBox="0 0 29 17" fill="none" xmlns="http://www.w3.org/2000/svg">
<path d="M14.4666 1.10631L10.2758 4.50056C9.57872 5.06338 9.44451 6.07646 9.9727 6.79947C10.5312 7.57011 11.6179 7.72164 12.3669 7.13717L16.666 3.79487C16.969 3.56108 17.402 3.61303 17.6401 3.91609C17.8782 4.21915 17.8219 4.65209 17.5188 4.89021L16.614 5.59157L24.2857 12.6572H26.0954C27.2427 12.6572 28.1735 11.7263 28.1735 10.579V5.03741C28.1735 3.89012 27.2427 2.95929 26.0954 2.95929H22.6016L22.4327 2.85106L19.2896 0.837887C18.6272 0.413605 17.8522 0.188477 17.0643 0.188477C16.1204 0.188477 15.2026 0.513182 14.4666 1.10631ZM15.4537 6.49209L13.2154 8.23251C11.8517 9.29754 9.87312 9.02046 8.85138 7.61773C7.89026 6.29726 8.1327 4.45294 9.40122 3.42687L13.0033 0.513182C12.5011 0.301041 11.9599 0.192806 11.4101 0.192806C10.5961 0.188476 9.80385 0.430923 9.12414 0.881181L6.00697 2.95929H2.54344C1.39615 2.95929 0.465332 3.89012 0.465332 5.03741V10.579C0.465332 11.7263 1.39615 12.6572 2.54344 12.6572H7.22786L11.1849 16.2679C12.0335 17.0428 13.3453 16.9822 14.1203 16.1337C14.3584 15.8696 14.5186 15.5622 14.6008 15.2418L15.3368 15.9172C16.1811 16.6922 17.4972 16.6359 18.2722 15.7916C18.467 15.5795 18.6099 15.3327 18.7008 15.0773C19.5407 15.6401 20.6836 15.5232 21.3893 14.7526C22.1643 13.9084 22.108 12.5922 21.2638 11.8173L15.4537 6.49209Z" fill="#BABABA"/>
</svg>
