<svg width="80" height="26" viewBox="0 0 80 26" fill="none" xmlns="http://www.w3.org/2000/svg">
<g clip-path="url(#clip0_1063_171)">
<path d="M11.0208 4.10987C9.91259 4.10878 8.81062 4.27439 7.75232 4.60108L16.9878 12.8516L8.73003 14.3206L8.88747 14.6632L10.5485 14.0265L8.97406 18.0751L5.06797 16.1134L6.7699 15.4657L6.65182 15.1137L0.687988 18.7853C1.37765 20.6631 2.5724 22.3169 4.14222 23.5669C5.71205 24.8169 7.59682 25.6151 9.59147 25.8748C11.5861 26.1344 13.6142 25.8456 15.4551 25.0396C17.296 24.2336 18.8792 22.9413 20.0324 21.3035C21.1856 19.6656 21.8646 17.7449 21.9956 15.7502C22.1266 13.7556 21.7045 11.7635 20.7753 9.99058C19.8461 8.21771 18.4454 6.73202 16.7255 5.69515C15.0056 4.65829 13.0325 4.10997 11.0208 4.10987ZM19.0219 20.9911C17.1846 23.1421 13.9413 23.3893 11.7041 21.6528C10.8287 20.9739 9.92185 19.9993 9.49991 18.6946C9.99878 19.6524 10.7468 20.4599 11.6661 21.0332C12.5854 21.6065 13.6425 21.9246 14.7275 21.9545C15.8125 21.9843 16.8857 21.7248 17.8355 21.203C18.7854 20.6812 19.5772 19.916 20.1287 18.9871C19.9241 19.6605 19.5934 20.2894 19.1541 20.8409C19.1069 20.8925 19.066 20.9426 19.0235 20.9911H19.0219Z" fill="url(#paint0_radial_1063_171)"/>
<path d="M6.2236 14.9195L2.01681 0L0 18.7507L6.2236 14.9195Z" fill="#024EB0"/>
<path d="M16.1282 12.6089L2.01685 0L8.92374 13.8917L16.1282 12.6089Z" fill="#024EB0"/>
<path d="M2.01685 0L7.26275 15.697L6.03472 16.1647L8.76 17.532L9.86838 14.7052L8.67184 15.1604L2.01685 0Z" fill="#024EB0"/>
<path d="M38.0311 14.1342H30.4567V8.30371H28.6162V21.7574H30.4567V15.7783H38.0311V21.7574H39.8716V8.30371H38.0311V14.1342Z" fill="#024EB0"/>
<path d="M48.6489 13.3381L48.238 13.1629C47.861 12.9568 47.4657 12.7856 47.0572 12.6513C46.6731 12.5124 46.2679 12.4399 45.8591 12.437C45.2304 12.4239 44.6062 12.5445 44.0284 12.7909C43.4505 13.0372 42.9324 13.4036 42.5088 13.8653C41.6617 14.7836 41.2319 15.9772 41.2319 17.4102C41.2319 18.7117 41.657 19.8021 42.4915 20.6453C43.3259 21.4885 44.3965 21.9234 45.6954 21.9234C46.2171 21.924 46.7364 21.8524 47.2383 21.7106C47.4148 21.6566 47.5865 21.588 47.7515 21.5057L47.9326 21.4181V21.7936H49.6802L49.6613 13.8606L48.6489 13.3381ZM47.9467 14.7977V19.6034C47.8365 19.6676 47.7216 19.7427 47.6035 19.8256C47.4671 19.9208 47.3183 19.9971 47.1611 20.0524C46.7378 20.2031 46.2897 20.2737 45.8402 20.2605C45.4442 20.2685 45.0503 20.201 44.6799 20.0618C44.3452 19.9266 44.042 19.7248 43.7888 19.4689C43.2849 18.9683 43.0283 18.269 43.0283 17.3914C43.0283 16.4528 43.3227 15.6706 43.9068 15.0683C44.1765 14.7676 44.5096 14.5298 44.8825 14.3718C45.2553 14.2139 45.6587 14.1397 46.0638 14.1547C46.4892 14.1499 46.9113 14.2307 47.3044 14.3925C47.4462 14.4535 47.5804 14.5307 47.7043 14.6224C47.7988 14.6897 47.8775 14.7476 47.9467 14.7977Z" fill="#024EB0"/>
<path d="M54.8836 12.437C54.6926 12.4375 54.5019 12.4538 54.3136 12.4855C54.1165 12.5185 53.9223 12.5666 53.7327 12.6294C53.5275 12.6886 53.3257 12.7585 53.1281 12.8391C52.947 12.9141 52.7865 12.983 52.6558 13.044L51.168 13.9232V26.0002H52.9156V21.512L53.1202 21.5949C53.2809 21.6605 53.4468 21.7128 53.6162 21.7513C54.0935 21.872 54.5847 21.9303 55.0772 21.925C56.3052 21.925 57.3727 21.4369 58.248 20.4779C59.1037 19.5888 59.5755 18.4025 59.5627 17.1724C59.5627 15.7973 59.1203 14.6522 58.2449 13.7699C57.3695 12.8876 56.2328 12.437 54.8836 12.437ZM57.7175 17.1896C57.7317 17.5879 57.6666 17.985 57.5258 18.3582C57.385 18.7314 57.1714 19.0732 56.8972 19.3641C56.3745 19.9304 55.6802 20.2042 54.7765 20.2042C54.5556 20.2057 54.3352 20.1852 54.1184 20.1431C53.9266 20.1066 53.7372 20.058 53.5516 19.9977C53.3942 19.9367 53.2556 19.8819 53.1202 19.8412C53.0482 19.8181 52.9782 19.7894 52.9108 19.7552V14.6819C52.9619 14.6558 53.0144 14.6328 53.0683 14.6131C53.1879 14.5693 53.3249 14.5161 53.4666 14.4566C53.6398 14.3956 53.8287 14.3283 54.0334 14.2533C54.236 14.1844 54.4491 14.1511 54.6631 14.1547C55.0695 14.1426 55.474 14.2153 55.8504 14.3681C56.2268 14.5209 56.5667 14.7503 56.8484 15.0417C57.4309 15.5986 57.7143 16.301 57.7143 17.1896H57.7175Z" fill="#024EB0"/>
<path d="M63.7632 12.437C63.5722 12.4375 63.3816 12.4538 63.1933 12.4855C62.9962 12.5185 62.802 12.5666 62.6123 12.6294C62.4072 12.6886 62.2054 12.7585 62.0078 12.8391C61.8267 12.9141 61.6661 12.983 61.5355 13.044L60.0366 13.9232V26.0002H61.7842V21.512L61.9889 21.5949C62.1496 21.6605 62.3155 21.7128 62.4848 21.7513C62.9622 21.872 63.4533 21.9303 63.9459 21.925C65.1739 21.925 66.2413 21.4369 67.1167 20.4779C67.9724 19.5888 68.4442 18.4025 68.4313 17.1724C68.4313 15.7973 67.9873 14.6522 67.112 13.7699C66.2366 12.8876 65.1078 12.437 63.7632 12.437ZM66.5971 17.1896C66.611 17.5878 66.5457 17.9849 66.405 18.358C66.2642 18.7311 66.0508 19.073 65.7769 19.3641C65.2526 19.9304 64.5599 20.2042 63.6546 20.2042C63.4337 20.2055 63.2133 20.1851 62.9965 20.1431C62.8052 20.1065 62.6164 20.0579 62.4313 19.9977C62.2738 19.9367 62.1353 19.8819 61.9999 19.8412C61.9278 19.8184 61.8578 19.7896 61.7905 19.7552V14.6819C61.8415 14.6558 61.8941 14.6328 61.9479 14.6131C62.0676 14.5693 62.203 14.5161 62.3447 14.4566C62.5195 14.3956 62.7084 14.3283 62.9131 14.2533C63.1156 14.1843 63.3287 14.1509 63.5428 14.1547C63.9492 14.1426 64.3537 14.2153 64.73 14.3681C65.1064 14.5209 65.4464 14.7503 65.7281 15.0417C66.3075 15.5986 66.5971 16.301 66.5971 17.1896Z" fill="#024EB0"/>
<path d="M69.0422 10.6878L70.7898 10.6644V8.30371H69.0422V10.6878Z" fill="#024EB0"/>
<path d="M70.7898 12.6025H69.0422V21.7573H70.7898V12.6025Z" fill="#024EB0"/>
<path d="M78.2383 17.2912H80V17.0973C80.0134 16.4396 79.9155 15.7844 79.7103 15.159C79.5241 14.6269 79.2329 14.1371 78.8538 13.7182C78.4789 13.3015 78.017 12.971 77.5004 12.7498C76.9838 12.5285 76.4248 12.4218 75.8625 12.437C75.2785 12.424 74.699 12.5406 74.1663 12.7785C73.6335 13.0164 73.1609 13.3695 72.783 13.8121C71.9958 14.6803 71.6006 15.7738 71.6006 17.0597C71.6006 18.4458 72.043 19.6206 72.9184 20.5545C73.8063 21.4619 74.9478 21.9234 76.308 21.9234C77.0147 21.9281 77.7136 21.7775 78.3548 21.4822C78.6119 21.3745 78.8599 21.2463 79.0963 21.0989C79.3151 20.9628 79.5356 20.8095 79.7513 20.6468L79.8284 20.589V18.3988L79.5072 18.707C79.2572 18.9378 78.9944 19.1546 78.72 19.3562C78.4889 19.5209 78.2475 19.6708 77.9974 19.8052C77.5034 20.0751 76.9473 20.2126 76.3836 20.2041C75.9777 20.2109 75.5747 20.1348 75.1997 19.9804C74.8433 19.8258 74.518 19.6085 74.2393 19.339C73.7162 18.8364 73.4102 18.1515 73.386 17.4289V17.2912H78.2383ZM73.8095 15.4594C73.8818 15.2914 73.976 15.1336 74.0897 14.99C74.3001 14.7182 74.5731 14.5005 74.8856 14.3552C75.1982 14.2098 75.5413 14.1411 75.8861 14.1547C76.1776 14.148 76.4677 14.1963 76.741 14.297C76.9662 14.3862 77.1712 14.5191 77.344 14.6881C77.5091 14.8568 77.6401 15.0554 77.7297 15.2732C77.8056 15.4482 77.8682 15.6286 77.9171 15.8129H73.6662C73.7103 15.6956 73.7575 15.5767 73.8095 15.4594Z" fill="#024EB0"/>
</g>
<defs>
<radialGradient id="paint0_radial_1063_171" cx="0" cy="0" r="1" gradientUnits="userSpaceOnUse" gradientTransform="translate(9.41962 13.5243) scale(139.676 138.787)">
<stop stop-color="#3ACFEF"/>
<stop offset="1" stop-color="#024EB0"/>
</radialGradient>
<clipPath id="clip0_1063_171">
<rect width="80" height="26" fill="white"/>
</clipPath>
</defs>
</svg>
