<svg width="16" height="15" viewBox="0 0 16 15" fill="none" xmlns="http://www.w3.org/2000/svg">
<g clip-path="url(#clip0_1063_143)">
<path d="M16.0002 7.97149C15.9501 8.32188 15.9125 8.67227 15.8415 9.01431C15.2695 11.9634 12.8019 14.3703 9.83319 14.8708C7.68705 15.2337 5.72463 14.8124 3.9835 13.4818C3.4574 13.0813 3.00646 12.61 2.61816 12.076C2.43026 11.8174 2.46367 11.5171 2.70166 11.3461C2.93548 11.175 3.23193 11.2293 3.424 11.4879C4.39269 12.781 5.67035 13.6027 7.25699 13.8906C10.8729 14.5413 14.1004 12.2387 14.8394 8.91003C15.566 5.63556 13.6745 2.3444 10.4762 1.31826C6.81022 0.141955 2.92296 2.40697 2.13799 6.182C2.12129 6.25708 2.11294 6.33634 2.09624 6.41142C2.11294 6.42393 2.12964 6.44062 2.14216 6.45313C2.21732 6.36136 2.2883 6.25708 2.37181 6.17366C2.58893 5.95675 2.89373 5.94841 3.09415 6.14863C3.29874 6.34885 3.29874 6.65336 3.08162 6.87444C2.68079 7.28322 2.27578 7.68784 1.86659 8.08828C1.60772 8.34273 1.26951 8.30936 1.06492 8.00903C0.739241 7.52516 0.413563 7.04129 0.0962352 6.55742C-0.0749548 6.2988 -0.0206751 6.00263 0.217321 5.84412C0.451141 5.68561 0.751768 5.74818 0.927133 5.99846C0.977237 6.06937 1.02734 6.14446 1.09415 6.24457C1.11502 6.16114 1.13173 6.10692 1.14425 6.05269C1.85824 2.97427 3.73715 0.984558 6.78935 0.217038C10.9397 -0.821616 15.1484 1.97316 15.8791 6.17366C15.9292 6.4573 15.9584 6.74512 16.0002 7.03294C16.0002 7.34579 16.0002 7.65864 16.0002 7.97149Z" fill="#3A3A3A"/>
<path d="M8.7516 5.33085C8.7516 6.0066 8.75577 6.68235 8.74742 7.3581C8.74742 7.46239 8.78083 7.52913 8.86433 7.5917C9.72863 8.24242 10.5929 8.89731 11.4572 9.54804C11.5867 9.64398 11.6952 9.75243 11.7203 9.91928C11.7495 10.1362 11.6785 10.3114 11.4906 10.4282C11.2986 10.545 11.1023 10.5325 10.9186 10.3948C10.5136 10.0945 10.1086 9.78997 9.70776 9.48547C9.13991 9.05999 8.57623 8.63452 8.00838 8.21322C7.83302 8.08391 7.74951 7.9254 7.74951 7.70849C7.74951 6.23602 7.74951 4.76355 7.74951 3.29108C7.74951 2.97407 7.96246 2.74882 8.25056 2.75299C8.53866 2.75299 8.74742 2.97824 8.74742 3.29943C8.7516 3.97935 8.7516 4.6551 8.7516 5.33085Z" fill="#3A3A3A"/>
</g>
<defs>
<clipPath id="clip0_1063_143">
<rect width="16" height="15" fill="white"/>
</clipPath>
</defs>
</svg>
