<svg width="16" height="16" viewBox="0 0 16 16" fill="none" xmlns="http://www.w3.org/2000/svg">
<g clip-path="url(#clip0_1063_150)">
<path d="M11.2497 0C11.3749 0.0313035 11.5001 0.058694 11.6214 0.101736C12.4275 0.367816 12.991 1.10736 12.9949 1.96038C13.0027 3.98728 13.0066 6.01027 12.9949 8.03717C12.987 9.15236 12.091 9.99755 10.9484 10.0015C8.58498 10.0054 6.22157 10.0015 3.85816 10.0015C3.73685 10.0015 3.64294 10.0328 3.54903 10.111C2.6921 10.831 1.83125 11.5471 0.970408 12.2631C0.872585 12.3453 0.763023 12.4275 0.645635 12.4744C0.403033 12.5723 0.101736 12.4353 0 12.0988C0 8.64759 0 5.19638 0 1.74908C0.00782587 1.72561 0.0234776 1.70604 0.0273906 1.67865C0.176082 0.903889 0.62607 0.379555 1.36562 0.105649C1.49083 0.0586941 1.61996 0.0352164 1.74908 0C4.91465 0 8.08021 0 11.2497 0ZM1.00171 10.9288C1.06823 10.8741 1.10736 10.8467 1.14258 10.8154C1.78821 10.2793 2.43385 9.74321 3.07166 9.20323C3.23991 9.06236 3.41991 8.99584 3.63903 8.99584C6.0494 8.99975 8.45977 8.99975 10.8701 8.99975C11.5979 8.99975 11.9971 8.59672 11.9971 7.865C11.9971 5.95549 11.9971 4.04206 11.9971 2.13255C11.9971 1.40083 11.5979 0.997799 10.8701 0.997799C7.955 0.997799 5.03986 0.997799 2.12472 0.997799C1.40474 0.997799 1.00171 1.40083 1.00171 2.1169C1.00171 4.98508 1.00171 7.85718 1.00171 10.7254C1.00171 10.7841 1.00171 10.8388 1.00171 10.9288Z" fill="#3A3A3A"/>
<path d="M14.9983 14.4544C14.9983 14.3683 14.9983 14.3174 14.9983 14.2666C14.9983 11.5549 14.9905 8.83933 15.0022 6.12767C15.0061 5.45464 14.5562 5.00857 13.9731 4.99683C13.6875 4.989 13.4879 4.75031 13.4997 4.48032C13.5114 4.21033 13.7344 4.00686 14.0201 4.00294C15.0453 3.99903 15.9374 4.84814 15.9961 5.88115C16 5.94767 16 6.01811 16 6.08463C16 9.18758 16 12.2945 16 15.3974C16 15.5813 15.9687 15.7496 15.8239 15.8787C15.6244 16.0548 15.374 16.0431 15.1274 15.8474C14.4114 15.2761 13.6953 14.7048 12.9831 14.1296C12.8697 14.0396 12.7601 14.0005 12.6153 14.0005C10.4241 14.0044 8.23284 14.0044 6.03769 14.0044C5.05163 14.0044 4.25339 13.3823 4.05383 12.4314C3.98731 12.1105 3.99905 11.7701 4.00687 11.4375C4.0147 11.1832 4.2573 10.9954 4.51164 11.0032C4.76598 11.011 4.97337 11.2106 4.99293 11.4688C5.00076 11.594 4.99684 11.7193 4.99684 11.8445C4.99684 12.6075 5.38814 13.0027 6.14725 13.0027C8.38154 13.0027 10.6158 13.0027 12.8501 12.9988C13.0692 12.9988 13.2531 13.0575 13.4214 13.1983C13.8949 13.5818 14.3722 13.9614 14.8457 14.3409C14.8888 14.3722 14.9279 14.4035 14.9983 14.4544Z" fill="#3A3A3A"/>
<path d="M6.49935 3.99922C5.50938 3.99922 4.51941 3.99922 3.53335 3.99922C3.14988 3.99922 2.90336 3.65879 3.0364 3.32228C3.11075 3.13055 3.25944 3.0249 3.46291 3.00142C3.51378 2.9975 3.56856 2.99751 3.61943 2.99751C5.54068 2.99751 7.46194 2.99751 9.38319 2.99751C9.45753 2.99751 9.53188 2.99359 9.60231 3.00924C9.85665 3.06011 10.0249 3.29489 10.0014 3.54532C9.97404 3.79966 9.77057 3.99139 9.50449 3.9953C8.95276 3.99922 8.40104 3.99922 7.84932 3.99922C7.39542 3.99922 6.94934 3.99922 6.49935 3.99922Z" fill="#3A3A3A"/>
<path d="M5.51333 5.00076C6.1707 5.00076 6.82416 4.99685 7.48154 5.00076C7.85718 5.00468 8.09978 5.36075 7.955 5.69335C7.86501 5.90074 7.69675 5.99856 7.47371 5.99856C6.94155 5.99856 6.41331 5.99856 5.88115 5.99856C5.09465 5.99856 4.30815 6.00247 3.52164 5.99856C3.14209 5.99465 2.89557 5.6464 3.03644 5.3138C3.12644 5.09859 3.29861 5.00076 3.52947 5.00076C4.19467 5.00076 4.85596 5.00076 5.51333 5.00076Z" fill="#3A3A3A"/>
</g>
<defs>
<clipPath id="clip0_1063_150">
<rect width="16" height="16" fill="white"/>
</clipPath>
</defs>
</svg>
