<svg width="16" height="16" viewBox="0 0 16 16" fill="none" xmlns="http://www.w3.org/2000/svg">
<path d="M9.99999 7.99999C9.99999 9.10264 9.10264 9.99999 7.99998 9.99999L5.33332 9.99999L5.33332 15.3333C5.33332 15.7013 5.63132 16 5.99998 16L15.3333 16C15.702 16 16 15.7013 16 15.3333L16 0.666657C16 0.298657 15.702 2.84666e-08 15.3333 6.36827e-08L5.99998 9.55256e-07C5.63132 9.90472e-07 5.33332 0.298658 5.33332 0.666658L5.33332 5.33332L5.33332 5.99998L7.99998 5.99998C9.10264 5.99998 9.99999 6.89733 9.99999 7.99999Z" fill="#EA2A2A"/>
<path d="M0.150049 7.57829C0.148018 7.58076 0.146331 7.58342 0.144361 7.58592C0.132924 7.60035 0.121831 7.61507 0.111612 7.63045C0.1068 7.63763 0.102736 7.64514 0.0982358 7.65248C0.0914857 7.66351 0.0845811 7.67445 0.0784871 7.68589C0.0734565 7.69526 0.0692365 7.70495 0.0647046 7.71451C0.0600173 7.72442 0.0550496 7.73417 0.0508306 7.74432C0.0462996 7.75526 0.0426118 7.76642 0.0387055 7.77751C0.0354554 7.78673 0.031862 7.79579 0.0290181 7.8052C0.0250499 7.81826 0.0220182 7.83148 0.0188615 7.8447C0.017018 7.85245 0.0147674 7.86004 0.0131738 7.86788C0.00951739 7.88604 0.00695583 7.90432 0.00483104 7.92267C0.00445625 7.92582 0.00379917 7.92889 0.00348636 7.93207C-0.00104454 7.97689 -0.00104454 8.02207 0.00348637 8.06689C0.00379918 8.07007 0.00448773 8.07314 0.00483105 8.07629C0.00695584 8.09464 0.00954888 8.11292 0.0131738 8.13107C0.0147369 8.13892 0.0169866 8.14651 0.0188615 8.15426C0.0220182 8.16748 0.0250499 8.18073 0.0290182 8.19376C0.031862 8.20317 0.0354555 8.21223 0.0387056 8.22145C0.0426433 8.23254 0.0462997 8.24373 0.0508306 8.25464C0.0550497 8.26479 0.0599859 8.27454 0.0647047 8.28445C0.0692365 8.29401 0.0734565 8.30367 0.0784872 8.31307C0.0846126 8.32451 0.0914857 8.33545 0.0982358 8.34648C0.102736 8.35382 0.1068 8.36132 0.111612 8.36851C0.121831 8.38389 0.132924 8.3986 0.144361 8.41304C0.146331 8.41554 0.148018 8.41817 0.150049 8.42067C0.165049 8.43907 0.181019 8.45664 0.197893 8.47332L2.86208 11.1375C3.12274 11.3982 3.54409 11.3982 3.80474 11.1375C4.0654 10.8769 4.0654 10.4555 3.80474 10.1949L2.27608 8.6662L8.00009 8.6662C8.36875 8.6662 8.66675 8.36754 8.66675 7.99954C8.66675 7.63154 8.36875 7.33288 8.00009 7.33288L2.27608 7.33288L3.80474 5.80422C4.0654 5.54357 4.0654 5.12222 3.80474 4.86157C3.67474 4.73157 3.50408 4.66622 3.3334 4.66622C3.16274 4.66622 2.99205 4.73157 2.86205 4.86157L0.197862 7.52576C0.18105 7.54232 0.165081 7.55988 0.150049 7.57829Z" fill="#EA2A2A"/>
</svg>
