<svg width="19" height="18" viewBox="0 0 19 18" fill="none" xmlns="http://www.w3.org/2000/svg">
<path id="Vector" d="M1.09033 10H7.09033C7.64033 10 8.09033 9.55 8.09033 9V1C8.09033 0.45 7.64033 0 7.09033 0H1.09033C0.540332 0 0.090332 0.45 0.090332 1V9C0.090332 9.55 0.540332 10 1.09033 10ZM1.09033 18H7.09033C7.64033 18 8.09033 17.55 8.09033 17V13C8.09033 12.45 7.64033 12 7.09033 12H1.09033C0.540332 12 0.090332 12.45 0.090332 13V17C0.090332 17.55 0.540332 18 1.09033 18ZM11.0903 18H17.0903C17.6403 18 18.0903 17.55 18.0903 17V9C18.0903 8.45 17.6403 8 17.0903 8H11.0903C10.5403 8 10.0903 8.45 10.0903 9V17C10.0903 17.55 10.5403 18 11.0903 18ZM10.0903 1V5C10.0903 5.55 10.5403 6 11.0903 6H17.0903C17.6403 6 18.0903 5.55 18.0903 5V1C18.0903 0.45 17.6403 0 17.0903 0H11.0903C10.5403 0 10.0903 0.45 10.0903 1Z" fill="white"/>
</svg>
