<svg width="25" height="25" viewBox="0 0 25 25" fill="none" xmlns="http://www.w3.org/2000/svg">
<path d="M12.7153 0.5C15.886 0.538254 18.9161 1.81482 21.1583 4.05702C23.4005 6.29921 24.6771 9.32928 24.7153 12.5C24.6771 15.6707 23.4005 18.7008 21.1583 20.943C18.9161 23.1852 15.886 24.4617 12.7153 24.5C9.54462 24.4617 6.51455 23.1852 4.27235 20.943C2.03015 18.7008 0.753586 15.6707 0.715332 12.5C0.753586 9.32928 2.03015 6.29921 4.27235 4.05702C6.51455 1.81482 9.54462 0.538254 12.7153 0.5ZM5.85819 13.3571H11.8582V19.3571H13.5725V13.3571H19.5725V11.6429H13.5725V5.64286H11.8582V11.6429H5.85819V13.3571Z" fill="#BABABA"/>
</svg>
