<svg width="16" height="16" viewBox="0 0 16 16" fill="none" xmlns="http://www.w3.org/2000/svg">
<g clip-path="url(#clip0_1063_159)">
<path d="M0 2.22052C0.125196 1.9492 0.338028 1.86988 0.630151 1.87406C3.19249 1.88241 5.75065 1.87823 8.31299 1.87823C8.37559 1.87823 8.43818 1.87823 8.5133 1.87823C8.67188 1.20617 9.03495 0.680216 9.62754 0.329577C10.0449 0.07912 10.5039 -0.0252369 10.988 0.0123316C11.9979 0.0916428 12.8618 0.797095 13.1122 1.88241C13.1622 1.88241 13.2207 1.88241 13.2749 1.88241C14.0261 1.88241 14.7731 1.88241 15.5243 1.88241C15.7788 1.88241 15.9791 2.06608 16 2.31236C16.0209 2.54194 15.8665 2.75483 15.6328 2.80492C15.5743 2.81744 15.5076 2.81745 15.445 2.81745C14.7272 2.81745 14.0094 2.81745 13.2916 2.81745C13.2332 2.81745 13.1789 2.81745 13.1122 2.81745C12.9661 3.44776 12.6322 3.94867 12.0981 4.30349C11.6724 4.58734 11.2008 4.71257 10.6917 4.68752C9.78195 4.6416 8.8096 4.04051 8.50913 2.81745C8.4507 2.81745 8.39228 2.81745 8.32968 2.81745C5.76317 2.81745 3.19666 2.81327 0.630151 2.82162C0.338028 2.82162 0.125196 2.74231 0 2.47515C0 2.38749 0 2.30401 0 2.22052ZM12.2149 2.34575C12.2149 1.57351 11.5889 0.943195 10.8169 0.939021C10.0407 0.934847 9.40219 1.56934 9.40219 2.34575C9.40219 3.11382 10.0323 3.74831 10.8002 3.75248C11.5806 3.75248 12.2149 3.12217 12.2149 2.34575Z" fill="#3A3A3A"/>
<path d="M2.27964e-05 7.87664C0.125218 7.60531 0.338051 7.52182 0.630174 7.53017C1.32292 7.54269 2.01567 7.53434 2.70842 7.53434C2.76685 7.53434 2.8211 7.53434 2.88787 7.53434C3.04228 6.87481 3.39282 6.36137 3.96455 6.00656C4.38187 5.74775 4.84092 5.63087 5.33336 5.66427C6.28902 5.72688 7.21129 6.37807 7.48672 7.53434C7.54097 7.53434 7.60357 7.53434 7.66617 7.53434C10.241 7.53434 12.8201 7.53434 15.3949 7.53434C15.445 7.53434 15.4992 7.53017 15.5493 7.53434C15.7955 7.55104 15.9875 7.75141 15.9917 7.99351C15.9958 8.2398 15.7997 8.45268 15.5493 8.46938C15.4992 8.47356 15.445 8.46938 15.3949 8.46938C12.8242 8.46938 10.2535 8.46938 7.67869 8.46938C7.61609 8.46938 7.55349 8.46938 7.48255 8.46938C7.32814 9.11639 6.99011 9.62566 6.4309 9.98047C6.00941 10.2476 5.54619 10.3687 5.04958 10.3395C4.10227 10.2852 3.1633 9.64653 2.87952 8.46938C2.82944 8.46938 2.77102 8.46938 2.71677 8.46938C2.01985 8.46938 1.32292 8.46103 0.626001 8.47356C0.333878 8.47773 0.121045 8.39425 -0.00415039 8.12709C2.27964e-05 8.04361 2.27964e-05 7.96012 2.27964e-05 7.87664ZM6.59366 8.00186C6.59366 7.22962 5.96768 6.59931 5.19981 6.59513C4.4236 6.59096 3.7851 7.22127 3.7851 7.99769C3.7851 8.76576 4.41108 9.40025 5.17895 9.40859C5.95516 9.40859 6.58949 8.77828 6.59366 8.00186Z" fill="#3A3A3A"/>
<path d="M0 13.5285C0.125196 13.2572 0.338028 13.1778 0.630151 13.182C3.19249 13.1904 5.75483 13.1862 8.31716 13.1862C8.37976 13.1862 8.44236 13.1862 8.5133 13.1862C8.65936 12.5559 8.98905 12.055 9.52739 11.7001C9.95305 11.4163 10.4246 11.2911 10.9338 11.3161C11.831 11.3579 12.8117 11.9506 13.1205 13.1862C13.1706 13.1862 13.229 13.1862 13.2833 13.1862C14.0261 13.1862 14.7731 13.1862 15.5159 13.1862C15.7246 13.1862 15.879 13.2822 15.9624 13.47C16.0417 13.6495 16.0083 13.8165 15.879 13.9626C15.7746 14.0795 15.6411 14.1212 15.4867 14.1212C14.7564 14.1212 14.0303 14.1212 13.2999 14.1212C13.2415 14.1212 13.1873 14.1212 13.1163 14.1212C13.0913 14.2047 13.0746 14.284 13.0454 14.3592C12.7199 15.265 12.0897 15.8118 11.1341 15.9704C11.109 15.9746 11.084 15.9871 11.0631 15.9955C10.8962 15.9955 10.7293 15.9955 10.5623 15.9955C10.5331 15.9871 10.5039 15.9746 10.4747 15.9663C9.49817 15.7909 8.85968 15.2274 8.55921 14.284C8.54251 14.2298 8.52582 14.1797 8.50913 14.1212C8.43818 14.1212 8.37559 14.1212 8.31299 14.1212C5.75065 14.1212 3.19249 14.1171 0.630151 14.1254C0.338028 14.1254 0.125196 14.0461 0 13.7789C0 13.6955 0 13.612 0 13.5285ZM10.8127 12.2512C10.0407 12.2512 9.41054 12.8815 9.40636 13.6495C9.40219 14.4259 10.0365 15.0646 10.8127 15.0646C11.5848 15.0646 12.2149 14.4343 12.2191 13.6662C12.2191 12.8856 11.5889 12.2512 10.8127 12.2512Z" fill="#3A3A3A"/>
</g>
<defs>
<clipPath id="clip0_1063_159">
<rect width="16" height="16" fill="white"/>
</clipPath>
</defs>
</svg>
