<!-- <svg width="28" height="26" viewBox="0 0 28 26" fill="none" xmlns="http://www.w3.org/2000/svg">
<path d="M23.0903 21.2226V9.56591C23.0903 8.99175 22.8541 8.43925 22.4266 8.03841L16.9928 2.80591C16.5766 2.39425 16.0028 2.16675 15.4066 2.16675H7.34033C6.10283 2.16675 5.10158 3.14175 5.10158 4.33341L5.09033 21.6667C5.09033 22.8584 6.09158 23.8334 7.32908 23.8334H20.8403C21.3466 23.8334 21.7966 23.6709 22.1791 23.4001L17.1953 18.6009C16.2278 19.2076 15.0691 19.5542 13.8203 19.4892C11.1541 19.3701 8.87033 17.3659 8.51033 14.8201C8.39152 13.9739 8.48158 13.1127 8.77319 12.3063C9.06481 11.5 9.54977 10.7712 10.1887 10.1792C10.8276 9.58711 11.6025 9.14848 12.4505 8.89887C13.2985 8.64927 14.1956 8.59572 15.0691 8.74258C17.2628 9.10008 19.0853 10.7467 19.5691 12.8376C19.9403 14.4192 19.5803 15.8926 18.7816 17.0626L23.0903 21.2226ZM10.7153 14.0834C10.7153 15.8817 12.2228 17.3334 14.0903 17.3334C15.9578 17.3334 17.4653 15.8817 17.4653 14.0834C17.4653 12.2851 15.9578 10.8334 14.0903 10.8334C12.2228 10.8334 10.7153 12.2851 10.7153 14.0834Z" fill="#BABABA"/>
</svg> -->

<svg width="26" height="16" viewBox="0 0 26 16" fill="none" xmlns="http://www.w3.org/2000/svg">
<g clip-path="url(#clip0_1063_114)">
<path d="M0 9.57007C0.128982 9.25536 0.359791 9.13377 0.68564 9.14092C2.7765 9.14807 4.86736 9.14807 6.95144 9.14807C7.35196 9.14807 7.58956 9.37695 7.57598 9.74173C7.56919 10.0135 7.3859 10.2352 7.12794 10.271C7.0329 10.2853 6.94465 10.2782 6.84961 10.2853C4.81306 10.2853 2.76971 10.2782 0.733159 10.2925C0.407311 10.2925 0.162924 10.1995 0 9.89908C0 9.78464 0 9.67735 0 9.57007Z" fill="#3A3A3A"/>
<path d="M17.8267 3.42602C18.105 3.42602 18.3494 3.42602 18.5938 3.42602C19.612 3.44032 20.6303 3.40456 21.6418 3.46893C23.8073 3.61913 25.7081 5.60036 25.9797 7.87483C26.0679 8.64014 25.8643 9.34108 25.7489 10.0635C25.5859 11.0934 25.3891 12.1162 25.2058 13.139C25.1311 13.5539 24.9682 13.6969 24.5609 13.7041C24.3233 13.7041 24.0857 13.7112 23.8481 13.7112C23.8345 13.7112 23.8141 13.7255 23.787 13.7327C23.6648 14.219 23.4679 14.684 23.1285 15.0559C22.4157 15.8426 21.5468 16.1502 20.5421 15.9142C19.5306 15.6781 18.8585 14.9987 18.5395 13.9544C18.4784 13.7613 18.4105 13.6898 18.2136 13.6969C16.1838 13.7041 14.1473 13.7041 12.1175 13.6969C11.9207 13.6969 11.846 13.7541 11.7849 13.9544C11.4387 15.1775 10.3865 15.9928 9.1849 15.9928C7.99691 15.9857 6.93111 15.1489 6.59847 13.9329C6.55095 13.747 6.47628 13.6969 6.30657 13.7041C5.85174 13.7184 5.39012 13.7112 4.93529 13.7041C4.56871 13.6969 4.32432 13.4752 4.32432 13.1462C4.32432 12.8029 4.56871 12.574 4.95565 12.574C5.47837 12.574 6.00787 12.574 6.53059 12.574C6.59847 12.3666 6.65278 12.1734 6.73424 11.9875C7.18907 10.9146 8.24808 10.2208 9.30709 10.2924C10.5019 10.371 11.4523 11.1435 11.7849 12.3165C11.846 12.5311 11.9342 12.5811 12.1311 12.5811C12.9661 12.5668 13.8079 12.574 14.6429 12.574C14.6564 12.574 14.6768 12.5668 14.7175 12.5597C15.5389 8.78319 16.3536 4.9924 17.1818 1.16585C17.0392 1.16585 16.9374 1.16585 16.8288 1.16585C12.9186 1.16585 9.00839 1.16585 5.09142 1.16585C4.96244 1.16585 4.83346 1.16585 4.71127 1.13008C4.47367 1.07287 4.30395 0.829683 4.31074 0.579347C4.31753 0.336165 4.47367 0.107287 4.70448 0.0500671C4.83346 0.00715243 4.94886 0 5.05748 0C9.27315 0 13.4888 0 17.7045 0C18.2951 0 18.5055 0.278945 18.3765 0.87975C18.2 1.71658 18.0167 2.54627 17.8267 3.42602ZM18.4648 12.5597C18.9807 11.0577 19.8293 10.321 21.0919 10.2852C21.635 10.2709 22.1442 10.4283 22.6058 10.743C23.2371 11.1793 23.6173 11.7944 23.7938 12.5454C23.9499 12.5454 24.0789 12.5454 24.2147 12.5454C24.4115 11.4367 24.6016 10.3424 24.8053 9.2481C24.8935 8.74743 24.9818 8.26106 24.8731 7.74609C24.493 5.93652 23.0063 4.62047 21.2481 4.58471C20.0737 4.56325 18.8925 4.57756 17.7181 4.57756C17.6773 4.57756 17.6366 4.58471 17.5823 4.59186C17.012 7.24542 16.4418 9.89182 15.8648 12.5525C16.7473 12.5597 17.6094 12.5597 18.4648 12.5597ZM22.7619 13.1462C22.7619 12.1949 22.0355 11.4367 21.1327 11.4367C20.2434 11.4367 19.517 12.1949 19.5102 13.1247C19.5034 14.0688 20.2298 14.8485 21.1259 14.8556C22.0152 14.8628 22.7619 14.0831 22.7619 13.1462ZM10.8277 13.1748C10.8277 12.1949 10.1421 11.4439 9.23241 11.4367C8.32954 11.4296 7.60317 12.1734 7.59638 13.1104C7.59638 14.0903 8.31597 14.8699 9.21884 14.8556C10.1081 14.8485 10.8209 14.0975 10.8277 13.1748Z" fill="#3A3A3A"/>
<path d="M4.33797 6.85208C3.48262 6.85208 2.62726 6.85208 1.77191 6.85208C1.66329 6.85208 1.54789 6.85208 1.44606 6.81632C1.22883 6.75195 1.07269 6.49446 1.08627 6.25843C1.09985 5.99379 1.28993 5.76491 1.5411 5.722C1.6022 5.71484 1.65651 5.71484 1.7176 5.71484C3.46225 5.71484 5.2069 5.71484 6.95155 5.71484C7.19593 5.71484 7.40638 5.78637 7.52178 6.02955C7.71186 6.40863 7.46068 6.84493 7.03301 6.85208C6.3881 6.86639 5.74319 6.85923 5.10507 6.85923C4.84711 6.85208 4.59593 6.85208 4.33797 6.85208Z" fill="#3A3A3A"/>
<path d="M4.86745 3.42581C4.18181 3.42581 3.49617 3.42581 2.81053 3.42581C2.41001 3.42581 2.1792 3.21839 2.1792 2.86792C2.1792 2.5103 2.4168 2.28857 2.82411 2.28857C4.20896 2.28857 5.60061 2.28857 6.98547 2.28857C7.46066 2.28857 7.7322 2.74633 7.51497 3.14687C7.39278 3.36144 7.2027 3.42581 6.97868 3.42581C6.27267 3.42581 5.56667 3.42581 4.86745 3.42581Z" fill="#3A3A3A"/>
</g>
<defs>
<clipPath id="clip0_1063_114">
<rect width="26" height="16" fill="white"/>
</clipPath>
</defs>
</svg>
