<svg width="16" height="16" viewBox="0 0 16 16" fill="none" xmlns="http://www.w3.org/2000/svg">
<g clip-path="url(#clip0_1063_124)">
<path d="M5.99677 15.9999C5.78811 15.8996 5.6337 15.7577 5.64622 15.503C5.65874 15.2692 5.83818 15.0813 6.07188 15.0646C6.13865 15.0604 6.20542 15.0604 6.27637 15.0604C8.71351 15.0604 11.1507 15.0604 13.5836 15.0604C14.2847 15.0604 14.8356 14.6429 15.0067 13.9957C15.2279 13.1564 14.6227 12.3047 13.7589 12.2504C13.3583 12.2253 12.9576 12.2378 12.557 12.2378C11.6055 12.2337 10.6499 12.2587 9.69838 12.2211C8.56328 12.1752 7.62431 11.2316 7.5325 10.0959C7.43652 8.92678 8.20438 7.84119 9.33532 7.60737C9.68169 7.53639 10.0489 7.54474 10.4037 7.54474C10.6457 7.54474 10.821 7.78273 10.8085 8.02908C10.8001 8.26708 10.6081 8.45914 10.3661 8.47167C10.1157 8.48419 9.86531 8.46749 9.61909 8.50507C8.918 8.61363 8.41721 9.26499 8.46312 9.98733C8.50485 10.6846 9.08492 11.2775 9.78185 11.29C11.0505 11.3067 12.3233 11.2984 13.592 11.2984C14.2597 11.2984 14.8439 11.5197 15.303 11.9999C15.954 12.6846 16.1585 13.4946 15.858 14.3923C15.5575 15.2859 14.9107 15.8078 13.9801 15.9748C13.9509 15.979 13.9216 15.9915 13.8924 16.004C11.2675 15.9999 8.63005 15.9999 5.99677 15.9999Z" fill="#3A3A3A"/>
<path d="M0 10.7518C0.0417319 10.5597 0.0709442 10.3634 0.125196 10.1756C0.534168 8.70165 1.91967 7.69539 3.43036 7.77055C5.00365 7.84988 6.2723 8.96888 6.53521 10.5054C6.68962 11.4031 6.46427 12.2298 6.04695 13.0148C5.44184 14.1463 4.57799 15.0649 3.60146 15.8833C3.54304 15.9334 3.47209 15.9626 3.40532 16.0044C3.33438 16.0044 3.25926 16.0044 3.18832 16.0044C3.07981 15.9334 2.95879 15.8749 2.87115 15.7872C2.4121 15.3363 1.93636 14.8979 1.51069 14.4177C0.938967 13.7747 0.47157 13.0524 0.204486 12.2215C0.116849 11.9459 0.0709442 11.6578 0.00417319 11.3781C0 11.1693 0 10.9605 0 10.7518ZM3.28847 14.9188C4.19405 14.0712 5.02034 13.186 5.4627 12.0085C5.61294 11.6161 5.66719 11.2069 5.62963 10.781C5.50443 9.4908 4.21909 8.50541 2.93792 8.7267C1.48148 8.9814 0.630151 10.3467 1.05164 11.7789C1.43558 13.0774 2.33281 14.0127 3.28847 14.9188Z" fill="#3A3A3A"/>
<path d="M12.5154 0C14.577 0.00417537 16.0793 1.57411 15.9875 3.44885C15.9499 4.2547 15.6495 4.97704 15.228 5.64927C14.6354 6.5929 13.88 7.39457 13.0287 8.10438C12.8284 8.2714 12.5989 8.2881 12.4153 8.13361C11.301 7.20668 10.3245 6.16284 9.74024 4.81002C9.30623 3.80793 9.25615 2.78497 9.7778 1.79541C10.3913 0.626305 11.3928 0.0542797 12.5154 0ZM12.6949 7.1524C13.5253 6.38831 14.2807 5.58246 14.7355 4.55115C14.8774 4.23382 14.9859 3.88309 15.0193 3.53653C15.1237 2.55115 14.7314 1.77453 13.8884 1.27349C13.0412 0.772443 12.1732 0.810021 11.3553 1.36117C10.4455 1.97495 10.1117 3.08142 10.5039 4.18789C10.9338 5.39457 11.7768 6.2881 12.6949 7.1524Z" fill="#3A3A3A"/>
<path d="M3.28847 9.64943C4.07303 9.64526 4.699 10.2674 4.70318 11.0524C4.70735 11.829 4.07303 12.4678 3.29681 12.4678C2.5206 12.472 1.8821 11.8373 1.87793 11.0607C1.87793 10.2883 2.50808 9.65361 3.28847 9.64943ZM3.29264 10.5931C3.03808 10.5931 2.82524 10.7977 2.8169 11.0524C2.81272 11.3071 3.0339 11.5325 3.29264 11.5283C3.5472 11.5242 3.75586 11.3154 3.75586 11.0565C3.76004 10.7977 3.55138 10.5931 3.29264 10.5931Z" fill="#3A3A3A"/>
<path d="M14.1094 3.29877C14.1053 4.07539 13.4668 4.71004 12.6947 4.70587C11.9185 4.70169 11.2842 4.06286 11.2884 3.29042C11.2925 2.5138 11.931 1.87915 12.7031 1.88332C13.4751 1.8875 14.1136 2.52633 14.1094 3.29877ZM12.6947 3.76224C12.9535 3.76641 13.1621 3.55764 13.1663 3.30295C13.1705 3.04407 12.9535 2.82278 12.6947 2.82278C12.4402 2.82695 12.2273 3.0399 12.2273 3.29459C12.2273 3.54929 12.436 3.76224 12.6947 3.76224Z" fill="#3A3A3A"/>
</g>
<defs>
<clipPath id="clip0_1063_124">
<rect width="16" height="16" fill="white"/>
</clipPath>
</defs>
</svg>

