<svg width="28" height="27" viewBox="0 0 28 27" fill="none" xmlns="http://www.w3.org/2000/svg">
<path d="M16.3988 2.48566C16.226 2.34967 16.0269 2.24803 15.8131 2.18663C15.5992 2.12524 15.3749 2.10529 15.1529 2.12796C14.931 2.15063 14.716 2.21546 14.5203 2.3187C14.3245 2.42194 14.152 2.56153 14.0127 2.72941L9.12571 8.62491H11.2857L15.3306 3.74341L16.63 4.76553L13.3731 8.62491H15.5466L17.9378 5.79091L20.837 8.07078L20.3341 8.62491H20.8403C21.3436 8.6244 21.8441 8.69614 22.3253 8.83778C22.5092 8.50568 22.5676 8.12243 22.4907 7.75346C22.4137 7.38449 22.2062 7.05267 21.9035 6.81466L16.3988 2.48566ZM5.65283 9.43741C5.65283 9.22192 5.74173 9.01526 5.89996 8.86288C6.05819 8.71051 6.27281 8.62491 6.49658 8.62491H7.43821L8.77977 6.99991H6.49658C5.82525 6.99991 5.18142 7.25671 4.70672 7.71383C4.23202 8.17095 3.96533 8.79094 3.96533 9.43741V19.1874C3.96533 20.2648 4.40981 21.2982 5.20098 22.06C5.99214 22.8219 7.0652 23.2499 8.18408 23.2499H20.8403C21.7354 23.2499 22.5939 22.9075 23.2268 22.298C23.8598 21.6885 24.2153 20.8619 24.2153 19.9999V13.4999C24.2153 12.638 23.8598 11.8113 23.2268 11.2018C22.5939 10.5923 21.7354 10.2499 20.8403 10.2499H6.49658C6.27281 10.2499 6.05819 10.1643 5.89996 10.0119C5.74173 9.85956 5.65283 9.65289 5.65283 9.43741ZM18.3091 16.7499H19.9966C20.2204 16.7499 20.435 16.8355 20.5932 16.9879C20.7514 17.1403 20.8403 17.3469 20.8403 17.5624C20.8403 17.7779 20.7514 17.9846 20.5932 18.1369C20.435 18.2893 20.2204 18.3749 19.9966 18.3749H18.3091C18.0853 18.3749 17.8707 18.2893 17.7125 18.1369C17.5542 17.9846 17.4653 17.7779 17.4653 17.5624C17.4653 17.3469 17.5542 17.1403 17.7125 16.9879C17.8707 16.8355 18.0853 16.7499 18.3091 16.7499Z" fill="#BABABA"/>
</svg>
