<svg width="23" height="22" viewBox="0 0 23 22" fill="none" xmlns="http://www.w3.org/2000/svg">
<g id="bi:gift-fill">
<path id="Vector" d="M5.09033 3.4375C5.09033 2.52582 5.4525 1.65148 6.09715 1.00682C6.74181 0.362164 7.61615 0 8.52783 0C9.43951 0 10.3139 0.362164 10.9585 1.00682C11.6032 1.65148 11.9653 2.52582 11.9653 3.4375C11.9653 2.52582 12.3275 1.65148 12.9722 1.00682C13.6168 0.362164 14.4911 0 15.4028 0C16.3145 0 17.1889 0.362164 17.8335 1.00682C18.4782 1.65148 18.8403 2.52582 18.8403 3.4375V3.44575C18.8403 3.542 18.8403 3.817 18.7881 4.125H21.5903C21.955 4.125 22.3047 4.26987 22.5626 4.52773C22.8205 4.78559 22.9653 5.13533 22.9653 5.5V6.875C22.9653 7.23967 22.8205 7.58941 22.5626 7.84727C22.3047 8.10513 21.955 8.25 21.5903 8.25H2.34033C1.97566 8.25 1.62592 8.10513 1.36806 7.84727C1.1102 7.58941 0.965332 7.23967 0.965332 6.875V5.5C0.965332 5.13533 1.1102 4.78559 1.36806 4.52773C1.62592 4.26987 1.97566 4.125 2.34033 4.125H5.14258C5.10626 3.90044 5.08879 3.67323 5.09033 3.44575V3.4375ZM6.55883 4.125H10.5903V3.4375C10.5903 3.16665 10.537 2.89845 10.4333 2.64822C10.3297 2.39798 10.1778 2.17061 9.98624 1.97909C9.79472 1.78757 9.56735 1.63565 9.31712 1.532C9.06688 1.42835 8.79868 1.375 8.52783 1.375C8.25698 1.375 7.98878 1.42835 7.73855 1.532C7.48831 1.63565 7.26094 1.78757 7.06942 1.97909C6.8779 2.17061 6.72598 2.39798 6.62233 2.64822C6.51868 2.89845 6.46533 3.16665 6.46533 3.4375C6.46533 3.55437 6.46808 3.81425 6.52721 4.02875C6.53547 4.06154 6.54604 4.0937 6.55883 4.125ZM13.3403 4.125H17.3718C17.3845 4.09365 17.395 4.06149 17.4035 4.02875C17.4626 3.81425 17.4653 3.55437 17.4653 3.4375C17.4653 2.89049 17.248 2.36589 16.8612 1.97909C16.4744 1.5923 15.9498 1.375 15.4028 1.375C14.8558 1.375 14.3312 1.5923 13.9444 1.97909C13.5576 2.36589 13.3403 2.89049 13.3403 3.4375V4.125ZM21.5903 9.625V19.9375C21.5903 20.4845 21.373 21.0091 20.9862 21.3959C20.5994 21.7827 20.0748 22 19.5278 22H13.3403V9.625H21.5903ZM4.40283 22C3.85582 22 3.33122 21.7827 2.94442 21.3959C2.55763 21.0091 2.34033 20.4845 2.34033 19.9375V9.625H10.5903V22H4.40283Z" fill="#BABABA"/>
</g>
</svg>
