<svg width="27" height="25" viewBox="0 0 27 25" fill="none" xmlns="http://www.w3.org/2000/svg">
<g id="mdi:logout">
<path id="Vector" d="M18.0487 17.7083V14.5833H10.4653V10.4166H18.0487V7.29158L23.4653 12.4999L18.0487 17.7083ZM15.882 2.08325C16.4566 2.08325 17.0077 2.30275 17.4141 2.69345C17.8204 3.08415 18.0487 3.61405 18.0487 4.16659V6.24992H15.882V4.16659H6.132V20.8333H15.882V18.7499H18.0487V20.8333C18.0487 21.3858 17.8204 21.9157 17.4141 22.3064C17.0077 22.6971 16.4566 22.9166 15.882 22.9166H6.132C5.55736 22.9166 5.00626 22.6971 4.59993 22.3064C4.19361 21.9157 3.96533 21.3858 3.96533 20.8333V4.16659C3.96533 3.61405 4.19361 3.08415 4.59993 2.69345C5.00626 2.30275 5.55736 2.08325 6.132 2.08325H15.882Z" fill="#BABABA"/>
</g>
</svg>
