<svg width="28" height="26" viewBox="0 0 28 26" fill="none" xmlns="http://www.w3.org/2000/svg">
<g id="ic:round-find-in-page">
<path id="Vector" d="M23.0903 21.2226V9.56591C23.0903 8.99175 22.8541 8.43925 22.4266 8.03841L16.9928 2.80591C16.5766 2.39425 16.0028 2.16675 15.4066 2.16675H7.34033C6.10283 2.16675 5.10158 3.14175 5.10158 4.33341L5.09033 21.6667C5.09033 22.8584 6.09158 23.8334 7.32908 23.8334H20.8403C21.3466 23.8334 21.7966 23.6709 22.1791 23.4001L17.1953 18.6009C16.2278 19.2076 15.0691 19.5542 13.8203 19.4892C11.1541 19.3701 8.87033 17.3659 8.51033 14.8201C8.39152 13.9739 8.48158 13.1127 8.77319 12.3063C9.06481 11.5 9.54977 10.7712 10.1887 10.1792C10.8276 9.58711 11.6025 9.14848 12.4505 8.89887C13.2985 8.64927 14.1956 8.59572 15.0691 8.74258C17.2628 9.10008 19.0853 10.7467 19.5691 12.8376C19.9403 14.4192 19.5803 15.8926 18.7816 17.0626L23.0903 21.2226ZM10.7153 14.0834C10.7153 15.8817 12.2228 17.3334 14.0903 17.3334C15.9578 17.3334 17.4653 15.8817 17.4653 14.0834C17.4653 12.2851 15.9578 10.8334 14.0903 10.8334C12.2228 10.8334 10.7153 12.2851 10.7153 14.0834Z" fill="#BABABA"/>
</g>
</svg>
