<svg width="28" height="27" viewBox="0 0 28 27" fill="none" xmlns="http://www.w3.org/2000/svg">
<g id="mdi:truck-delivery">
<path id="Vector" d="M3.96533 4.83325C3.36859 4.83325 2.7963 5.06153 2.37434 5.46785C1.95238 5.87418 1.71533 6.42528 1.71533 6.99992V18.9166H3.96533C3.96533 19.7785 4.32091 20.6052 4.95385 21.2147C5.58678 21.8242 6.44523 22.1666 7.34033 22.1666C8.23544 22.1666 9.09388 21.8242 9.72682 21.2147C10.3598 20.6052 10.7153 19.7785 10.7153 18.9166H17.4653C17.4653 19.7785 17.8209 20.6052 18.4538 21.2147C19.0868 21.8242 19.9452 22.1666 20.8403 22.1666C21.7354 22.1666 22.5939 21.8242 23.2268 21.2147C23.8598 20.6052 24.2153 19.7785 24.2153 18.9166H26.4653V13.4999L23.0903 9.16659H19.7153V4.83325M11.8403 6.99992L16.3403 11.3333L11.8403 15.6666V12.4166H5.09033V10.2499H11.8403M19.7153 10.7916H22.5278L24.7441 13.4999H19.7153M7.34033 17.2916C7.78788 17.2916 8.21711 17.4628 8.53358 17.7675C8.85004 18.0723 9.02783 18.4856 9.02783 18.9166C9.02783 19.3476 8.85004 19.7609 8.53358 20.0656C8.21711 20.3704 7.78788 20.5416 7.34033 20.5416C6.89278 20.5416 6.46356 20.3704 6.14709 20.0656C5.83062 19.7609 5.65283 19.3476 5.65283 18.9166C5.65283 18.4856 5.83062 18.0723 6.14709 17.7675C6.46356 17.4628 6.89278 17.2916 7.34033 17.2916ZM20.8403 17.2916C21.2879 17.2916 21.7171 17.4628 22.0336 17.7675C22.35 18.0723 22.5278 18.4856 22.5278 18.9166C22.5278 19.3476 22.35 19.7609 22.0336 20.0656C21.7171 20.3704 21.2879 20.5416 20.8403 20.5416C20.3928 20.5416 19.9636 20.3704 19.6471 20.0656C19.3306 19.7609 19.1528 19.3476 19.1528 18.9166C19.1528 18.4856 19.3306 18.0723 19.6471 17.7675C19.9636 17.4628 20.3928 17.2916 20.8403 17.2916Z" fill="#BABABA"/>
</g>
</svg>
